# Blender 4.1.1
# www.blender.org
mtllib Road.mtl
o Road
v -7.500000 -0.250000 3.000000
v -7.500000 0.250000 3.000000
v -7.500000 -0.250000 -3.000000
v -7.500000 0.250000 -3.000000
v 7.500000 -0.250000 3.000000
v 7.500000 0.250000 3.000000
v 7.500000 -0.250000 -3.000000
v 7.500000 0.250000 -3.000000
vn -1.0000 -0.0000 -0.0000
vn -0.0000 -0.0000 -1.0000
vn 1.0000 -0.0000 -0.0000
vn -0.0000 -0.0000 1.0000
vn -0.0000 -1.0000 -0.0000
vn -0.0000 1.0000 -0.0000
vt 0.375000 0.000000
vt 0.625000 0.000000
vt 0.625000 0.250000
vt 0.375000 0.250000
vt 0.625000 0.500000
vt 0.375000 0.500000
vt 0.625000 0.750000
vt 0.375000 0.750000
vt 0.625000 1.000000
vt 0.375000 1.000000
vt 0.125000 0.500000
vt 0.125000 0.750000
vt -0.002683 2.042037
vt 0.002697 -1.058721
vt 1.002683 -1.042037
vt 0.997303 2.058721
s 0
usemtl RoadMaterial
f 1/1/1 2/2/1 4/3/1 3/4/1
f 3/4/2 4/3/2 8/5/2 7/6/2
f 7/6/3 8/5/3 6/7/3 5/8/3
f 5/8/4 6/7/4 2/9/4 1/10/4
f 3/11/5 7/6/5 5/8/5 1/12/5
f 8/13/6 4/14/6 2/15/6 6/16/6
o Side-Left
v -7.500000 -0.250000 7.000000
v -7.500000 0.250000 7.000000
v -7.500000 -0.250000 3.000000
v -7.500000 0.250000 3.000000
v 7.500000 -0.250000 7.000000
v 7.500000 0.250000 7.000000
v 7.500000 -0.250000 3.000000
v 7.500000 0.250000 3.000000
vn -1.0000 -0.0000 -0.0000
vn -0.0000 -0.0000 -1.0000
vn 1.0000 -0.0000 -0.0000
vn -0.0000 -0.0000 1.0000
vn -0.0000 -1.0000 -0.0000
vn -0.0000 1.0000 -0.0000
vt -2.778376 5.079916
vt -2.778376 4.531633
vt -1.438546 4.531633
vt -1.438546 5.079916
vt -2.778376 3.983341
vt -2.778376 3.435061
vt 3.784576 3.435061
vt 3.784576 3.983346
vt -1.438546 5.079912
vt -0.098716 4.531633
vt -0.098716 5.079916
vt -2.778376 4.531629
vt -2.778376 3.983346
vt 3.784576 3.983349
vt 3.784576 4.531633
vt 3.784576 0.001089
vt -2.778376 0.001085
vt -2.778376 -3.432883
vt 3.784576 -3.432879
vt -2.778376 3.435057
vt -2.778376 0.001089
s 0
usemtl PavingStone
f 9/17/7 10/18/7 12/19/7 11/20/7
f 11/21/8 12/22/8 16/23/8 15/24/8
f 15/25/9 16/19/9 14/26/9 13/27/9
f 13/28/10 14/29/10 10/30/10 9/31/10
f 11/32/11 15/33/11 13/34/11 9/35/11
f 16/23/12 12/36/12 10/37/12 14/32/12
o Side-Right
v -7.500000 -0.250000 -3.000000
v -7.500000 0.250000 -3.000000
v -7.500000 -0.250000 -7.000000
v -7.500000 0.250000 -7.000000
v 7.500000 -0.250000 -3.000000
v 7.500000 0.250000 -3.000000
v 7.500000 -0.250000 -7.000000
v 7.500000 0.250000 -7.000000
vn -1.0000 -0.0000 -0.0000
vn -0.0000 -0.0000 -1.0000
vn 1.0000 -0.0000 -0.0000
vn -0.0000 -0.0000 1.0000
vn -0.0000 -1.0000 -0.0000
vn -0.0000 1.0000 -0.0000
vt -2.778376 5.079916
vt -2.778376 4.531633
vt -1.438546 4.531633
vt -1.438546 5.079916
vt -2.778376 3.983341
vt -2.778376 3.435061
vt 3.784576 3.435061
vt 3.784576 3.983346
vt -1.438546 5.079912
vt -0.098716 4.531633
vt -0.098716 5.079916
vt -2.778376 4.531629
vt -2.778376 3.983346
vt 3.784576 3.983349
vt 3.784576 4.531633
vt 3.784576 0.001089
vt -2.778376 0.001085
vt -2.778376 -3.432883
vt 3.784576 -3.432879
vt -2.778376 3.435057
vt -2.778376 0.001089
s 0
usemtl PavingStone
f 17/38/13 18/39/13 20/40/13 19/41/13
f 19/42/14 20/43/14 24/44/14 23/45/14
f 23/46/15 24/40/15 22/47/15 21/48/15
f 21/49/16 22/50/16 18/51/16 17/52/16
f 19/53/17 23/54/17 21/55/17 17/56/17
f 24/44/18 20/57/18 18/58/18 22/53/18
